<svg xmlns="http://www.w3.org/2000/svg" width="1600" height="900" viewBox="0 0 1600 900"><rect width="1600" height="900" fill="#090909"/><text x="48" y="62" fill="#e8e2d8" font-family="monospace" font-size="31" font-weight="700">SHATTERED SANCTUM // COMBAT LAB ROUTE</text><line x1="48" y1="82" x2="1550" y2="82" stroke="#8e1117" stroke-width="2"/><g font-family="monospace" font-size="20"><path d="M120 470 H1480" stroke="#555" stroke-width="3"/><g fill="#101010" stroke="#777" stroke-width="2"><rect x="90" y="390" width="150" height="160"/><rect x="270" y="390" width="150" height="160"/><rect x="450" y="390" width="150" height="160"/><rect x="630" y="390" width="150" height="160"/><rect x="810" y="390" width="150" height="160"/><rect x="990" y="390" width="150" height="160"/><rect x="1170" y="390" width="150" height="160"/><rect x="1350" y="350" width="180" height="240"/></g><g fill="#e8e2d8" text-anchor="middle"><text x="165" y="430">01</text><text x="165" y="465">MOVEMENT</text><text x="345" y="430">02</text><text x="345" y="465">WEAPONS</text><text x="525" y="430">03</text><text x="525" y="465">PARRY</text><text x="705" y="430">04</text><text x="705" y="465">LIGHTNING</text><text x="885" y="430">05</text><text x="885" y="465">THUNDER</text><text x="1065" y="430">06</text><text x="1065" y="465">ARTIFACTS</text><text x="1245" y="430">07</text><text x="1245" y="465">MIXED</text><text x="1440" y="410">08</text><text x="1440" y="450">MINI-BOSS</text></g><text x="90" y="650" fill="#aaa">Handcrafted test map, not procedural campaign content.</text><text x="90" y="685" fill="#aaa">Each zone isolates one system before integrated boss validation.</text></g><text x="48" y="872" fill="#777" font-family="monospace" font-size="16">UE5 TECHNICAL VISUAL REFERENCE // NOT FINAL ART</text></svg>
